<?xml version="1.0" encoding="UTF-8" standalone="no"?>
<!-- Created with Inkscape (http://www.inkscape.org/) -->

<svg
   width="128"
   height="128"
   viewBox="0 0 33.866666 33.866666"
   version="1.1"
   id="svg5"
   inkscape:version="1.1.2 (0a00cf5339, 2022-02-04)"
   sodipodi:docname="J.svg"
   xmlns:inkscape="http://www.inkscape.org/namespaces/inkscape"
   xmlns:sodipodi="http://sodipodi.sourceforge.net/DTD/sodipodi-0.dtd"
   xmlns="http://www.w3.org/2000/svg"
   xmlns:svg="http://www.w3.org/2000/svg">
  <sodipodi:namedview
     id="namedview7"
     pagecolor="#595959"
     bordercolor="#ff00ff"
     borderopacity="1"
     inkscape:pageshadow="0"
     inkscape:pageopacity="0"
     inkscape:pagecheckerboard="false"
     inkscape:document-units="px"
     showgrid="false"
     units="px"
     width="256px"
     borderlayer="true"
     showguides="true"
     inkscape:guide-bbox="true"
     inkscape:snap-grids="false"
     inkscape:zoom="6.3046875"
     inkscape:cx="77.482032"
     inkscape:cy="64"
     inkscape:window-width="1920"
     inkscape:window-height="1016"
     inkscape:window-x="0"
     inkscape:window-y="27"
     inkscape:window-maximized="1"
     inkscape:current-layer="layer1">
    <sodipodi:guide
       position="16.962623,16.956977"
       orientation="1,0"
       id="guide885" />
    <sodipodi:guide
       position="16.962623,16.956977"
       orientation="0,-1"
       id="guide887" />
  </sodipodi:namedview>
  <defs
     id="defs2" />
  <g
     inkscape:label="Layer 1"
     inkscape:groupmode="layer"
     id="layer1">
    <g
       aria-label="ᒉ"
       id="text6729"
       style="font-size:12.7px;line-height:1.25;font-family:'Ubuntu Mono';-inkscape-font-specification:'Ubuntu Mono';stroke-width:0.264583">
      <path
         d="M 8.1566742,8.2806151 H 6.9040375 q 0,-1.5502929 0.8991699,-2.2448241 0.9053711,-0.7007325 2.2510256,-0.7007325 1.463476,0 2.306836,0.7441407 0.843359,0.7441406 0.843359,2.2076171 V 14.773242 H 11.951791 V 8.2806151 q 0,-1.0169921 -0.632519,-1.48208 -0.63252,-0.4712891 -1.265039,-0.4712891 -0.7937503,0 -1.3456545,0.5270996 -0.5519043,0.5208985 -0.5519043,1.4262695 z"
         id="path72672" />
    </g>
    <g
       aria-label="ᒉ"
       transform="scale(1,-1)"
       id="text6729-3"
       style="font-size:12.7px;line-height:1.25;font-family:'Ubuntu Mono';-inkscape-font-specification:'Ubuntu Mono';stroke-width:0.264583">
      <path
         d="M 8.1566742,-25.321435 H 6.9040375 q 0,-1.550293 0.8991699,-2.244824 0.9053711,-0.700732 2.2510256,-0.700732 1.463476,0 2.306836,0.74414 0.843359,0.744141 0.843359,2.207617 v 6.486426 h -1.252637 v -6.492627 q 0,-1.016992 -0.632519,-1.48208 -0.63252,-0.471289 -1.265039,-0.471289 -0.7937503,0 -1.3456545,0.5271 -0.5519043,0.520898 -0.5519043,1.426269 z"
         id="path72669" />
    </g>
    <g
       aria-label="ᒉ"
       transform="scale(-1,1)"
       id="text6729-0"
       style="font-size:12.7px;line-height:1.25;font-family:'Ubuntu Mono';-inkscape-font-specification:'Ubuntu Mono';stroke-width:0.264583">
      <path
         d="m -25.710124,8.2806151 h -1.252637 q 0,-1.5502929 0.89917,-2.2448241 0.905371,-0.7007325 2.251025,-0.7007325 1.463477,0 2.306836,0.7441407 0.84336,0.7441406 0.84336,2.2076171 v 6.4864257 h -1.252637 V 8.2806151 q 0,-1.0169921 -0.63252,-1.48208 -0.632519,-0.4712891 -1.265039,-0.4712891 -0.79375,0 -1.345654,0.5270996 -0.551904,0.5208985 -0.551904,1.4262695 z"
         id="path72666" />
    </g>
    <g
       aria-label="ᒉ"
       transform="scale(-1)"
       id="text6729-2"
       style="font-size:12.7px;line-height:1.25;font-family:'Ubuntu Mono';-inkscape-font-specification:'Ubuntu Mono';stroke-width:0.264583">
      <path
         d="m -25.710124,-25.586018 h -1.252637 q 0,-1.550293 0.89917,-2.244824 0.905371,-0.700733 2.251025,-0.700733 1.463477,0 2.306836,0.744141 0.84336,0.74414 0.84336,2.207617 v 6.486426 h -1.252637 v -6.492627 q 0,-1.016992 -0.63252,-1.48208 -0.632519,-0.471289 -1.265039,-0.471289 -0.79375,0 -1.345654,0.527099 -0.551904,0.520899 -0.551904,1.42627 z"
         id="path72663" />
    </g>
  </g>
</svg>
