<?xml version="1.0" encoding="UTF-8" standalone="no"?>
<!-- Created with Inkscape (http://www.inkscape.org/) -->

<svg
   width="64"
   height="64"
   viewBox="0 0 16.933333 16.933334"
   version="1.1"
   id="svg5"
   inkscape:version="1.1.2 (0a00cf5339, 2022-02-04)"
   sodipodi:docname="abugida_icon.svg"
   inkscape:export-filename="/home/delamb/Dropbox/projects/werock/abugida/img/abugida_icon.png"
   inkscape:export-xdpi="96"
   inkscape:export-ydpi="96"
   xmlns:inkscape="http://www.inkscape.org/namespaces/inkscape"
   xmlns:sodipodi="http://sodipodi.sourceforge.net/DTD/sodipodi-0.dtd"
   xmlns="http://www.w3.org/2000/svg"
   xmlns:svg="http://www.w3.org/2000/svg">
  <sodipodi:namedview
     id="namedview7"
     pagecolor="#505050"
     bordercolor="#ffffff"
     borderopacity="1"
     inkscape:pageshadow="0"
     inkscape:pageopacity="0"
     inkscape:pagecheckerboard="1"
     inkscape:document-units="mm"
     showgrid="false"
     units="px"
     width="36px"
     inkscape:zoom="12.609375"
     inkscape:cx="31.960347"
     inkscape:cy="32"
     inkscape:window-width="1920"
     inkscape:window-height="1016"
     inkscape:window-x="0"
     inkscape:window-y="27"
     inkscape:window-maximized="1"
     inkscape:current-layer="text5000"
     inkscape:lockguides="false"
     showguides="true"
     inkscape:guide-bbox="true">
    <sodipodi:guide
       position="8.4881544,8.4142093"
       orientation="1,0"
       id="guide29382" />
    <sodipodi:guide
       position="8.4881544,8.4142093"
       orientation="0,-1"
       id="guide29384" />
    <sodipodi:guide
       position="11.007087,8.4142093"
       orientation="1,0"
       id="guide29386" />
    <sodipodi:guide
       position="5.9934474,8.4142093"
       orientation="1,0"
       id="guide29388" />
  </sodipodi:namedview>
  <defs
     id="defs2" />
  <g
     inkscape:label="Layer 1"
     inkscape:groupmode="layer"
     id="layer1">
    <g
       aria-label="አቡ
ጊዳ"
       id="text5000"
       style="font-size:5.64444px;line-height:0.65;font-family:'Noto Color Emoji';-inkscape-font-specification:'Noto Color Emoji';letter-spacing:0px;word-spacing:0px;stroke-width:0.264583"
       transform="translate(0.19271755,-0.15882939)">
      <rect
         style="fill:#ffffff;stroke:none;stroke-width:3.62501"
         id="rect29066"
         width="15.875"
         height="15.875"
         x="0.33644912"
         y="0.68799603"
         rx="2.0604246" />
      <g
         id="g29378"
         transform="translate(1.321832,0.21419182)">
        <path
           d="m 1.8739001,7.3522344 q 0,-0.6796984 0.4882339,-1.6465932 Q 2.8599413,4.7291732 3.9895809,3.704839 H 3.1471378 q -0.1244523,0 -0.1723179,-0.086159 Q 2.9365267,3.532521 2.7929288,3.0347137 2.6876231,2.6709316 2.6110378,2.4124547 q -0.00957,-0.028719 -0.00957,-0.05744 0,-0.095732 0.172318,-0.095732 h 0.7275643 0.067012 q 0.076585,0 0.1053057,0.019147 0.028719,0.028719 0.2201841,0.5935395 0.2010374,0.5552465 0.2393304,0.7467108 h 0.5265269 q 0.1244522,0 0.1627455,0.00957 0.038293,0.00957 0.038293,0.067012 0,0.019147 0,0.028719 0,0.00957 -0.019147,0.028719 -0.00957,0.019147 -0.028719,0.038293 -0.00957,0.00957 -0.038293,0.047866 Q 4.7458697,3.877152 4.7075767,3.915444 4.6692837,3.953737 4.602271,4.0207497 4.535259,4.0877617 4.4586721,4.1739211 4.3916601,4.2505081 4.2767811,4.3749587 4.1714755,4.4898368 4.056597,4.6238622 q 0.4212216,0 0.6988449,0.028719 0.2871965,0.028719 0.4978073,0.076587 0.2106108,0.038293 0.3446357,0.1627438 0.1435989,0.1244523 0.2393304,0.2393304 0.095732,0.1148782 0.1723179,0.3637824 0.086159,0.2489035 0.1435989,0.4690875 0.067012,0.2201841 0.1818911,0.6318323 0.1148782,0.4020751 0.2297573,0.7562842 0.05744,0.2010374 0.05744,0.2201839 v 0.028719 q 0,0.086159 -0.1531714,0.086159 H 6.430751 5.7414794 5.6648937 q -0.05744,0 -0.095731,-0.00957 Q 5.540442,7.6585772 5.5117223,7.601138 5.4925759,7.5436988 5.4830026,7.4766862 5.4734294,7.4001005 5.4447098,7.246929 5.4159902,7.0937576 5.3776973,6.9214397 5.3489776,6.7395485 5.2723918,6.4523521 5.2053794,6.1555823 5.1192204,5.8396662 5.0330614,5.475884 4.9564757,5.3322858 4.87989,5.1886875 4.6309864,5.1025285 4.3820827,5.0067963 3.8555558,5.0067963 q -0.095731,0 -0.3063429,0.3350626 -0.2106108,0.3254894 -0.4020751,0.8424431 -0.181891,0.5169536 -0.181891,0.928602 0,0.1531714 0.028719,0.3159161 0.038293,0.1531714 0.038293,0.1627456 0,0.05744 -0.05744,0.086159 -0.05744,0.019147 -0.1053057,0.019147 -0.028719,0 -0.086159,0 -0.047866,-0.00957 -0.067012,-0.00957 H 2.1515234 q -0.00957,0 -0.05744,0.00957 -0.038293,0 -0.05744,0 -0.086159,0 -0.1244523,-0.038293 -0.038293,-0.047866 -0.038293,-0.1723179 z"
           id="path28962"
           style="stroke-width:0.448744" />
        <path
           d="m 13.045827,5.4280179 q -0.717991,0 -0.852016,-0.4882341 -0.07658,0.00957 -0.229757,0.028719 -0.143599,0.00957 -0.220184,0.019147 -0.05744,0 -0.08616,0.00957 -0.02872,0 -0.05744,0.00957 -0.01915,0 -0.03829,0.028719 -0.0096,0.019147 -0.01915,0.038293 -0.0096,0.019147 -0.0096,0.076585 0,0.047866 -0.0096,0.095731 0,0.047866 -0.0096,0.1435989 0,0.086159 -0.0096,0.1723181 -0.09573,0.9573216 -0.09573,1.4551288 0,0.2010375 0.03829,0.3063428 0.04787,0.1053056 0.09573,0.1244523 0.05744,0.00957 0.09573,0.028719 0.04787,0.019147 0.04787,0.067012 0,0.086159 -0.229757,0.1148781 L 10.997187,7.716 q -0.114878,0.019147 -0.181891,0.019147 -0.201038,0 -0.29677,-0.2106108 -0.08616,-0.2201839 -0.08616,-0.4882341 0,-0.6605518 0.09573,-1.7231789 0.105305,-1.0722002 0.105305,-1.6753128 0,-0.4978072 -0.296769,-0.794577 -0.29677,-0.3063428 -0.7562843,-0.3063428 -0.2297573,0 -0.4595143,0.095731 -0.220184,0.086159 -0.4595144,0.2967696 -0.2297572,0.2010375 -0.3733555,0.622259 -0.1435989,0.4116483 -0.1435989,0.9764681 0,0.2106108 0.00957,0.5935394 0.00957,0.3829287 0.028719,0.928602 0.028719,0.5361001 0.076586,0.9381752 0.05744,0.4020751 0.1244523,0.4499411 0.00957,0.00957 0.047866,0.028719 0.038293,0.00957 0.05744,0.028719 0.019147,0.019147 0.019147,0.047866 0,0.047866 -0.047866,0.067012 Q 8.4219859,7.629839 8.2400949,7.658558 7.847593,7.72557 7.6369824,7.72557 q -0.3733555,0 -0.3733555,-0.6126857 0,-0.6126859 -0.05744,-1.5604344 -0.05744,-0.9477484 -0.05744,-1.1487859 0,-0.5073804 0.2393304,-0.8998824 Q 7.6273867,3.1017263 7.9528762,2.8911155 8.2879387,2.6709316 8.699587,2.5273333 9.1112352,2.3837351 9.3984317,2.3454423 q 0.2967698,-0.047866 0.5073806,-0.047866 0.7467107,0 1.2157987,0.3350625 0.478661,0.3350626 0.50738,0.8903091 0,0.1244523 -0.02872,0.6318322 -0.02872,0.5073806 -0.02872,0.6318323 0.402075,-0.038293 0.612686,-0.047866 0.08616,-0.3254894 0.421221,-0.4690877 0.344636,-0.1531713 0.737138,-0.1531713 0.181891,0 0.325489,0.038293 -0.258477,0.05744 -0.258477,0.3254894 0,0.1914644 0.162746,0.4212216 0.172318,0.220184 0.392502,0.2871965 -0.08616,0.086159 -0.373356,0.1627439 -0.287196,0.076587 -0.545673,0.076586 z"
           id="path28964"
           style="stroke-width:0.448744" />
        <path
           d="m 3.8842755,13.816399 q 0,-0.143599 0.3446358,-1.885924 Q 4.573547,10.18815 4.573547,10.092418 4.5544006,9.747782 4.305497,9.4701586 4.0565933,9.1925355 3.7119576,9.1829622 q -0.076585,0 -0.2106108,0.047866 -0.1244523,0.047866 -0.1627438,0.05744 0.019147,0.1340248 0.019147,0.2010375 0,0.440368 -0.2776233,0.7945763 -0.2776232,0.354209 -0.6892715,0.373356 -0.1914643,0 -0.3446358,-0.06701 -0.1531714,-0.07658 -0.220184,-0.143599 -0.067012,-0.07659 -0.067012,-0.114878 0,-0.04786 0.1435989,-0.277623 0.1435989,-0.2297568 0.1435989,-0.3829282 0,-0.047866 -0.038293,-0.1244522 -0.028719,-0.076585 -0.028719,-0.1148782 0,-0.1244522 0.2010377,-0.1818911 0.2106107,-0.05744 0.7945768,-0.1053057 H 3.1758601 L 3.606655,9.0202169 q 0.4212214,-0.1244522 0.7084179,-0.1244522 0.440368,0 0.8424431,0.3446358 0.4020751,0.3350626 0.4020751,0.8711625 0,0.07658 -0.3446358,1.828484 -0.3446357,1.742326 -0.3446357,1.838058 0,0.153171 0.047866,0.201037 0.047866,0.04787 0.1914643,0.04787 0.076585,0 0.3350626,-0.01915 0.2584745,-0.01914 0.4690851,-0.02872 0.057439,-0.258476 0.3829286,-0.430794 0.3350628,-0.181891 0.8328699,-0.181891 0.038293,0 0.1340247,0.01915 0.095732,0.0096 0.1340248,0.0096 -0.2584769,0.08616 -0.2584769,0.325489 0,0.373356 0.5552465,0.727565 -0.4116483,0.229757 -0.9094555,0.229757 -0.26805,0 -0.4499412,-0.07659 -0.1818915,-0.07662 -0.2489039,-0.162777 -0.067012,-0.08616 -0.1244523,-0.162746 -0.047866,-0.07658 -0.086159,-0.07658 L 4.2767762,14.33335 q -0.3925019,0 -0.3925019,-0.516954 z"
           id="path28966"
           style="stroke-width:0.448744" />
        <path
           d="m 6.4227053,11.298643 q 0.4020751,0 0.6892716,0.05744 0.2871965,0.05744 0.306343,0.05744 0.019147,0 0.038293,0 0.1053057,0 0.5648197,-0.172318 -0.2776235,-0.536101 -0.2776235,-1.053055 0,-0.4116484 0.2010374,-0.7084181 Q 8.1458844,9.1829622 8.4713736,9.0393639 8.796863,8.8861925 9.1223524,8.81918 9.457415,8.7521676 9.8020507,8.7521676 q 1.6178733,0 1.6178733,0.8615894 0,0.2106108 -0.06701,0.392502 -0.06701,0.181891 -0.181891,0.315916 -0.114878,0.134025 -0.26805,0.248904 -0.153172,0.105305 -0.32549,0.181891 -0.172318,0.07658 -0.363782,0.134025 -0.181891,0.05744 -0.3542089,0.09573 -0.1723178,0.02872 -0.3350625,0.04787 -0.1627439,0.01915 -0.2776232,0.02872 -0.1053057,0.0096 -0.1914643,0.0096 l -0.086159,0.0096 q 0.00957,0.0096 0.05744,0.09573 0.047866,0.07658 0.076585,0.124452 0.038293,0.04787 0.1053057,0.134025 0.067012,0.07658 0.1148781,0.124452 0.05744,0.03829 0.1340247,0.07658 0.076585,0.03829 0.1435989,0.03829 0.3350626,0 0.5265265,-0.07659 0.191464,-0.07658 0.335063,-0.07658 l 0.325489,-0.02872 q 0.134025,-0.01915 0.220184,-0.01915 0.220184,0 0.306343,0.153171 0.09573,0.153172 0.09573,0.344636 -0.02872,0.134025 -0.153171,0.430795 l -0.497807,1.340267 q -0.04787,0.105306 -0.04787,0.181891 0,0.08616 0.06701,0.162744 0.06701,0.07659 0.06701,0.09573 0,0.01915 -0.01915,0.03829 -0.03829,0.05744 -0.191465,0.05744 -0.01915,0 -0.03829,0 -0.0096,0 -0.01915,0 -0.05744,0 -0.306342,0.02872 -0.239331,0.01915 -0.29677,0.01915 -0.1148781,0 -0.1914643,-0.08616 -0.067012,-0.08616 -0.067012,-0.220183 0,-0.09573 0.095732,-0.354209 l 0.4595153,-1.215798 q 0.143599,-0.382929 0.153172,-0.440368 0,-0.229757 -0.201038,-0.229757 l -1.0530533,0.114878 q -0.019147,0 -0.1435989,0.01915 -0.1148781,0.01915 -0.172318,0.01915 -0.181891,0 -0.3159161,-0.07659 -0.1340248,-0.07658 -0.2010375,-0.162744 -0.05744,-0.08616 -0.1244523,-0.162744 -0.067012,-0.07659 -0.1340247,-0.07659 -0.047866,0 -0.095731,0.02872 l -0.2297572,0.07659 q -0.1148782,0.02872 -0.143599,0.05744 -0.019147,0.01915 -0.019147,0.105306 0,0.382928 -0.2871965,0.650978 -0.2871965,0.26805 -0.6701251,0.26805 -0.1531714,0 -0.3925018,-0.07658 -0.2297572,-0.08616 -0.2297572,-0.21061 0,-0.01915 0.1435989,-0.287197 0.1531714,-0.26805 0.1531714,-0.373355 0,-0.04787 -0.047866,-0.124453 -0.047866,-0.07658 -0.047866,-0.114878 0,-0.04787 0.038293,-0.09573 0.047866,-0.05744 0.1723178,-0.05744 z m 2.5273291,-0.449941 q 0.1340248,0 0.3542091,-0.06701 0.2201839,-0.06701 0.4786608,-0.201037 0.2584767,-0.134025 0.4403677,-0.392502 0.191465,-0.26805 0.191465,-0.5935394 0,-0.2489036 -0.191465,-0.4403679 -0.191464,-0.2010375 -0.4595142,-0.2010375 -0.1531714,0 -0.3733553,0.095732 -0.220184,0.095731 -0.4499412,0.3829287 -0.220184,0.2871964 -0.220184,0.7084181 0,0.181891 0.05744,0.449941 0.05744,0.258477 0.1723172,0.258478 z"
           id="path28968"
           style="stroke-width:0.448744" />
      </g>
    </g>
  </g>
</svg>
