<?xml version="1.0" encoding="UTF-8" standalone="no"?>
<!-- Created with Inkscape (http://www.inkscape.org/) -->

<svg
   width="64"
   height="64"
   viewBox="0 0 16.933333 16.933333"
   version="1.1"
   id="svg5"
   inkscape:version="1.1.2 (0a00cf5339, 2022-02-04)"
   sodipodi:docname="ARCH.svg"
   xmlns:inkscape="http://www.inkscape.org/namespaces/inkscape"
   xmlns:sodipodi="http://sodipodi.sourceforge.net/DTD/sodipodi-0.dtd"
   xmlns="http://www.w3.org/2000/svg"
   xmlns:svg="http://www.w3.org/2000/svg">
  <sodipodi:namedview
     id="namedview7"
     pagecolor="#595959"
     bordercolor="#ff00ff"
     borderopacity="1"
     inkscape:pageshadow="0"
     inkscape:pageopacity="0"
     inkscape:pagecheckerboard="false"
     inkscape:document-units="px"
     showgrid="false"
     units="px"
     width="64px"
     borderlayer="true"
     showguides="true"
     inkscape:guide-bbox="true"
     inkscape:snap-grids="false"
     inkscape:zoom="12.609375"
     inkscape:cx="31.960347"
     inkscape:cy="27.717472"
     inkscape:window-width="1920"
     inkscape:window-height="1016"
     inkscape:window-x="0"
     inkscape:window-y="27"
     inkscape:window-maximized="1"
     inkscape:current-layer="layer1">
    <sodipodi:guide
       position="8.4445065,13.778421"
       orientation="1,0"
       id="guide885" />
    <sodipodi:guide
       position="-0.63362669,8.4322284"
       orientation="0,-1"
       id="guide887" />
  </sodipodi:namedview>
  <defs
     id="defs2">
    <linearGradient
       id="linearGradient1259"
       inkscape:swatch="solid">
      <stop
         style="stop-color:#0055d4;stop-opacity:1;"
         offset="0"
         id="stop1257" />
    </linearGradient>
    <linearGradient
       id="linearGradient1253"
       inkscape:swatch="solid">
      <stop
         style="stop-color:#2ca02c;stop-opacity:1;"
         offset="0"
         id="stop1251" />
    </linearGradient>
    <linearGradient
       id="linearGradient1247"
       inkscape:swatch="solid">
      <stop
         style="stop-color:#ffcc00;stop-opacity:1;"
         offset="0"
         id="stop1245" />
    </linearGradient>
    <linearGradient
       id="linearGradient1241"
       inkscape:swatch="solid">
      <stop
         style="stop-color:#d40000;stop-opacity:1;"
         offset="0"
         id="stop1239" />
    </linearGradient>
  </defs>
  <g
     inkscape:label="Layer 1"
     inkscape:groupmode="layer"
     id="layer1">
    <g
       aria-label="ᑎ"
       id="text27588"
       style="font-size:5.64444px;line-height:1.25;font-family:'Gentium Book Plus';-inkscape-font-specification:'Gentium Book Plus';stroke-width:0.264583">
      <path
         d="m 6.6548011,5.2351308 h 0.474133 V 2.762866 c 0,-0.6434662 0.6942661,-1.1740436 1.3377323,-1.1740436 0.6434662,0 1.3377323,0.5305774 1.3377323,1.1740436 V 5.2351308 H 10.278532 V 2.762866 c 0,-0.9087549 -0.9031107,-1.6481765 -1.8118656,-1.6481765 -0.9087549,0 -1.8118653,0.7394216 -1.8118653,1.6481765 z"
         style="font-family:FreeSans;-inkscape-font-specification:FreeSans"
         id="path66971" />
    </g>
    <g
       aria-label="ᑎ"
       transform="rotate(90)"
       id="text27588-3"
       style="font-size:5.64444px;line-height:1.25;font-family:'Gentium Book Plus';-inkscape-font-specification:'Gentium Book Plus';stroke-width:0.264583">
      <path
         d="m 6.6548011,-11.698023 h 0.474133 v -2.472265 c 0,-0.643466 0.6942661,-1.174043 1.3377323,-1.174043 0.6434662,0 1.3377323,0.530577 1.3377323,1.174043 v 2.472265 h 0.4741333 v -2.472265 c 0,-0.908755 -0.9031107,-1.648176 -1.8118656,-1.648176 -0.9087549,0 -1.8118653,0.739421 -1.8118653,1.648176 z"
         style="font-family:FreeSans;-inkscape-font-specification:FreeSans"
         id="path66968" />
    </g>
    <g
       aria-label="ᑎ"
       transform="scale(-1)"
       id="text27588-0"
       style="font-size:5.64444px;line-height:1.25;font-family:'Gentium Book Plus';-inkscape-font-specification:'Gentium Book Plus';stroke-width:0.264583">
      <path
         d="m -10.278532,-11.698023 h 0.4741332 v -2.472265 c 0,-0.643466 0.6942661,-1.174043 1.3377323,-1.174043 0.6434662,0 1.3377323,0.530577 1.3377323,1.174043 v 2.472265 h 0.474133 v -2.472265 c 0,-0.908755 -0.9031104,-1.648176 -1.8118653,-1.648176 -0.9087549,0 -1.8118655,0.739421 -1.8118655,1.648176 z"
         style="font-family:FreeSans;-inkscape-font-specification:FreeSans"
         id="path66965" />
    </g>
    <g
       aria-label="ᑎ"
       transform="rotate(-90)"
       id="text27588-9"
       style="font-size:5.64444px;line-height:1.25;font-family:'Gentium Book Plus';-inkscape-font-specification:'Gentium Book Plus';stroke-width:0.264583">
      <path
         d="m -10.278532,5.2351308 h 0.4741332 V 2.762866 c 0,-0.6434662 0.6942661,-1.1740436 1.3377323,-1.1740436 0.6434662,0 1.3377323,0.5305774 1.3377323,1.1740436 v 2.4722648 h 0.474133 V 2.762866 c 0,-0.9087549 -0.9031104,-1.6481765 -1.8118653,-1.6481765 -0.9087549,0 -1.8118655,0.7394216 -1.8118655,1.6481765 z"
         style="font-family:FreeSans;-inkscape-font-specification:FreeSans"
         id="path66962" />
    </g>
  </g>
</svg>
